<?xml version="1.0" standalone="no"?>
<!DOCTYPE svg PUBLIC "-//W3C//DTD SVG 20010904//EN"
 "http://www.w3.org/TR/2001/REC-SVG-20010904/DTD/svg10.dtd">
<svg version="1.0" xmlns="http://www.w3.org/2000/svg"
 width="800.000000pt" height="630.000000pt" viewBox="0 0 800.000000 630.000000"
 preserveAspectRatio="xMidYMid meet">

<g transform="translate(0.000000,630.000000) scale(0.100000,-0.100000)"
fill="#000000" stroke="none">
<path d="M3520 4796 c-305 -65 -531 -243 -661 -521 -48 -102 -65 -168 -80
-301 -14 -139 -1 -241 55 -409 24 -71 49 -157 56 -190 47 -236 157 -444 322
-606 218 -215 517 -339 817 -339 157 0 346 40 481 102 89 41 241 144 324 220
132 120 243 300 311 503 32 96 31 91 40 190 l8 80 -21 -18 c-21 -19 -68 -16
-57 4 3 5 -1 6 -11 2 -13 -5 -15 -2 -9 18 5 19 4 21 -5 9 -9 -13 -12 -13 -21
3 -6 9 -14 15 -20 12 -5 -3 -6 1 -2 10 4 13 8 14 14 4 4 -8 11 -10 15 -6 4 3
1 13 -5 21 -16 19 -62 1 -54 -20 3 -8 -1 -14 -11 -14 -25 0 -19 26 10 45 l25
16 -21 19 c-20 17 -24 18 -37 4 -13 -12 -13 -17 -1 -31 11 -15 11 -16 -4 -10
-10 3 -18 2 -18 -3 0 -6 -7 -10 -15 -10 -10 0 -14 7 -11 23 3 12 5 26 5 31 1
4 7 6 15 3 13 -5 44 19 35 27 -45 35 -126 86 -136 86 -9 0 -13 -14 -12 -47 1
-30 4 -38 6 -20 2 15 8 25 12 23 4 -3 6 -52 4 -108 -3 -70 -1 -98 5 -89 6 8 9
33 7 55 -3 33 -2 37 7 23 14 -26 1 -104 -17 -104 -8 0 -15 9 -15 19 0 11 -4
17 -10 13 -5 -3 -7 -13 -4 -23 5 -14 4 -15 -5 -2 -17 23 -14 63 4 56 9 -3 15
0 15 9 0 9 -6 12 -15 9 -11 -5 -15 2 -17 22 -1 16 -4 -41 -8 -126 -6 -168 -17
-202 -67 -221 -14 -5 -120 -9 -238 -9 l-213 0 -4 -27 c-2 -16 -2 -53 0 -84 4
-54 5 -56 45 -75 39 -18 42 -22 42 -59 l0 -40 -288 -3 c-249 -2 -288 0 -293
13 -12 31 6 64 49 87 l42 23 3 83 3 82 -213 0 c-183 0 -218 3 -248 18 -61 30
-60 22 -58 525 l3 459 33 29 32 29 540 0 c349 0 540 3 540 10 0 5 -19 42 -42
82 -42 70 -155 195 -212 235 l-30 20 54 39 54 39 -44 12 c-25 7 -94 18 -155
24 -60 5 -155 19 -210 31 -127 26 -326 32 -415 14z m1387 -1132 c-3 -3 -12 -4
-19 -1 -8 3 -5 6 6 6 11 1 17 -2 13 -5z m0 -146 c-2 -13 -4 -3 -4 22 0 25 2
35 4 23 2 -13 2 -33 0 -45z m131 -49 c-2 -6 -8 -10 -13 -10 -5 0 -11 4 -13 10
-2 6 4 11 13 11 9 0 15 -5 13 -11z m-41 -34 c0 -8 -4 -15 -9 -15 -4 0 -8 7 -8
15 0 8 4 15 8 15 5 0 9 -7 9 -15z"/>
<path d="M3421 4234 c-21 -26 -21 -35 -19 -408 l3 -381 595 0 c327 0 612 4
633 8 22 5 37 14 37 22 0 20 10 19 25 -1 13 -18 75 -29 75 -14 0 6 -8 10 -17
10 -17 1 -17 1 0 11 15 9 17 28 17 158 0 146 0 149 -22 155 -13 3 -34 6 -48 6
-20 0 -22 -2 -10 -10 13 -8 13 -10 -1 -10 -9 0 -19 9 -22 21 -3 13 -12 19 -24
17 -16 -3 -19 7 -24 97 -7 117 -12 141 -46 258 l-26 87 -553 0 -553 0 -20 -26z
m1004 -54 c20 -62 -163 -313 -299 -410 -24 -18 -76 -70 -115 -115 -65 -76 -76
-85 -135 -105 -36 -11 -70 -28 -77 -36 -17 -20 -34 -3 -49 51 -23 82 10 154
89 195 36 18 75 56 227 218 161 171 337 270 359 202z m325 -410 c0 -5 -4 -10
-10 -10 -5 0 -10 -7 -10 -15 0 -8 5 -15 11 -15 5 0 7 5 4 10 -3 6 -1 10 4 10
6 0 11 -18 11 -40 0 -22 -4 -40 -10 -40 -6 0 -10 -32 -10 -75 0 -41 -4 -75 -8
-75 -14 0 -32 24 -32 42 0 15 -3 17 -19 8 -25 -13 -34 -13 -26 0 3 6 0 10 -7
11 -10 0 -10 2 0 6 8 3 12 28 12 74 0 48 -4 69 -12 69 -7 0 0 7 16 15 15 8 37
15 47 15 11 0 19 5 19 10 0 6 5 10 10 10 6 0 10 -4 10 -10z m-125 -72 c-5 -29
-10 -37 -16 -27 -7 12 -9 12 -9 0 0 -8 -3 -11 -6 -8 -4 4 -2 13 4 20 7 8 9 16
6 20 -3 3 -3 20 1 38 6 27 9 30 17 15 5 -9 6 -35 3 -58z m12 -40 c-3 -7 -5 -2
-5 12 0 14 2 19 5 13 2 -7 2 -19 0 -25z m-42 -50 c-12 -16 -16 -18 -11 -5 3
10 6 26 6 35 0 12 3 13 11 5 8 -8 7 -17 -6 -35z"/>
<path d="M4368 4173 c-22 -6 -23 -20 -2 -40 13 -14 17 -14 25 -2 11 17 12 49
2 48 -5 -1 -16 -3 -25 -6z"/>
<path d="M4325 4110 c15 -16 32 -27 37 -24 11 7 -33 54 -51 54 -10 0 -5 -11
14 -30z"/>
<path d="M4227 4089 c-56 -37 -215 -194 -239 -237 l-18 -30 41 -37 c40 -36 41
-36 67 -19 60 38 134 109 194 185 35 44 64 86 66 92 1 7 -12 27 -31 45 l-33
32 -47 -31z"/>
<path d="M3928 3799 c-27 -15 -22 -31 25 -77 l43 -43 19 21 c19 21 18 21 -26
65 -35 36 -47 42 -61 34z"/>
<path d="M3843 3733 c-16 -6 -16 -17 -3 -64 7 -25 20 -41 45 -55 34 -18 34
-18 60 6 14 13 25 27 25 32 0 4 -16 26 -36 48 -34 38 -59 47 -91 33z"/>
<path d="M3793 3689 c-18 -22 -26 -66 -18 -105 7 -38 13 -39 80 -14 l26 10
-31 28 c-18 15 -35 42 -38 61 -6 27 -10 31 -19 20z"/>
<path d="M4685 3741 c-3 -6 4 -9 15 -8 11 1 20 5 20 9 0 11 -28 10 -35 -1z"/>
<path d="M5739 3872 c-77 -50 -108 -146 -74 -229 24 -56 44 -76 64 -60 14 10
14 10 3 -4 -10 -13 -9 -19 3 -29 8 -7 15 -9 15 -4 0 5 4 3 9 -5 15 -23 121
-27 162 -6 119 60 151 206 66 302 -62 71 -168 85 -248 35z m167 -35 c4 -4 2
-7 -4 -7 -6 0 -9 -6 -6 -14 3 -8 15 -11 30 -8 14 2 24 0 24 -7 0 -6 -2 -11 -4
-11 -2 0 -11 -3 -19 -6 -8 -3 -25 5 -37 18 -13 13 -20 16 -16 8 6 -13 5 -13
-6 0 -7 9 -21 14 -32 12 -10 -2 -23 1 -29 7 -7 7 -2 8 14 5 18 -4 20 -3 10 4
-10 7 -2 9 27 8 23 -1 45 -5 48 -9z m44 9 c0 -2 -8 -10 -17 -17 -16 -13 -17
-12 -4 4 13 16 21 21 21 13z m28 -85 c-9 -15 -8 -24 5 -45 11 -16 13 -26 6
-26 -6 0 -9 -9 -6 -20 3 -12 -3 -30 -14 -43 -10 -12 -18 -16 -19 -9 0 6 -8 12
-17 12 -17 1 -17 1 -1 10 9 6 19 22 22 38 8 34 -7 88 -23 84 -7 -1 -10 2 -6 8
3 5 19 10 36 10 26 0 28 -2 17 -19z m-43 -20 c3 -5 1 -12 -5 -16 -5 -3 -10 1
-10 9 0 18 6 21 15 7z m0 -82 c-4 -5 -13 -9 -22 -9 -13 0 -13 3 -3 15 13 15
35 11 25 -6z m13 -67 c11 -23 10 -24 -7 -8 -10 9 -26 16 -37 15 -17 0 -17 -2
4 -11 29 -15 28 -28 -3 -28 -14 0 -25 -4 -25 -9 0 -5 -9 -11 -19 -14 -15 -3
-18 -1 -14 11 4 10 2 13 -5 8 -8 -5 -10 -2 -6 9 5 12 9 13 20 4 11 -9 14 -8
14 4 0 17 32 44 53 44 7 0 18 -11 25 -25z m-133 -22 c3 -5 2 -10 -4 -10 -5 0
-13 5 -16 10 -3 6 -2 10 4 10 5 0 13 -4 16 -10z"/>
<path d="M5868 3833 c7 -3 16 -2 19 1 4 3 -2 6 -13 5 -11 0 -14 -3 -6 -6z"/>
<path d="M5956 3645 c-3 -8 -1 -15 4 -15 6 0 10 7 10 15 0 8 -2 15 -4 15 -2 0
-6 -7 -10 -15z"/>
<path d="M4811 3741 c-1 -27 2 -32 11 -23 8 8 8 17 0 34 -10 22 -11 21 -11
-11z"/>
<path d="M2497 3652 c-72 -79 34 -182 110 -106 20 20 24 31 19 57 -3 18 -16
40 -27 50 -28 22 -81 22 -102 -1z"/>
<path d="M3400 3364 c0 -36 6 -59 19 -75 l19 -24 619 -3 c634 -3 702 0 689 34
-3 8 -2 13 3 10 5 -3 11 4 14 16 6 22 -20 51 -35 42 -5 -3 -8 -1 -8 5 0 5 6
12 13 14 6 3 -11 6 -38 6 -28 1 -55 5 -61 11 -6 6 -247 10 -622 12 l-612 3 0
-51z m738 20 c31 -22 29 -67 -4 -93 -33 -26 -49 -26 -74 -1 -39 39 -13 110 40
110 9 0 26 -7 38 -16z m552 -8 c0 -3 -4 -8 -10 -11 -5 -3 -10 -1 -10 4 0 6 5
11 10 11 6 0 10 -2 10 -4z"/>
<path d="M4072 3338 c4 -28 42 -37 52 -13 9 24 -1 35 -30 35 -21 0 -25 -4 -22
-22z"/>
<path d="M4750 3395 c0 -8 5 -15 10 -15 6 0 10 7 10 15 0 8 -4 15 -10 15 -5 0
-10 -7 -10 -15z"/>
<path d="M3920 3150 l0 -80 104 0 c56 0 131 3 165 6 l61 7 0 73 0 74 -165 0
-165 0 0 -80z"/>
<path d="M3860 3022 c-19 -9 -36 -25 -38 -34 -3 -15 4 -18 42 -18 38 0 45 3
49 23 l4 22 2 -23 1 -24 193 2 c224 3 231 4 217 31 -6 10 -20 19 -30 19 -11 0
-20 5 -20 10 0 6 -71 10 -192 10 -164 0 -198 -3 -228 -18z"/>
<path d="M1261 1913 c-15 -13 -33 -61 -61 -168 -23 -82 -54 -199 -70 -258 -34
-122 -37 -162 -14 -171 35 -13 44 -5 64 63 19 60 26 72 55 85 73 35 128 7 140
-71 10 -73 53 -106 85 -68 11 13 9 30 -8 93 -13 45 -18 78 -12 80 16 6 12 30
-9 60 -11 15 -31 79 -46 142 -35 151 -68 229 -96 230 -4 0 -16 -8 -28 -17z
m52 -254 c25 -65 22 -111 -6 -122 -25 -9 -77 5 -77 22 0 19 35 145 45 161 10
15 11 13 38 -61z"/>
<path d="M5343 1915 c-29 -20 -43 -74 -33 -122 24 -108 22 -234 -6 -420 -6
-36 -3 -43 16 -53 31 -17 69 -4 82 28 7 18 11 116 10 292 -1 239 -3 266 -18
277 -22 16 -25 16 -51 -2z"/>
<path d="M2712 1865 c-25 -22 -26 -24 -10 -42 11 -12 20 -52 27 -127 16 -158
14 -251 -4 -266 -22 -18 -18 -36 11 -59 37 -29 80 -26 151 9 81 41 128 103
154 203 10 41 9 51 -14 100 -44 97 -147 182 -237 196 -46 7 -55 6 -78 -14z
m194 -136 c40 -38 68 -102 60 -140 -8 -47 -56 -121 -90 -138 -46 -25 -53 -6
-60 172 l-7 158 38 -16 c21 -9 47 -25 59 -36z"/>
<path d="M1989 1873 c-12 -3 -19 -27 -29 -96 -19 -142 -17 -139 -89 -162 -84
-28 -98 -55 -44 -84 18 -9 29 -8 57 6 20 9 38 15 40 12 7 -6 24 -164 32 -281
7 -111 18 -134 59 -124 28 7 28 7 22 74 -4 37 -9 128 -13 202 l-7 135 46 2
c65 2 101 22 105 57 l4 28 -69 -3 -68 -4 3 40 c2 22 10 65 18 96 19 78 18 96
-8 103 -25 6 -34 6 -59 -1z"/>
<path d="M5564 1848 c-33 -16 -50 -53 -33 -74 16 -20 50 -33 67 -26 7 2 20 18
28 34 13 24 13 32 2 46 -26 34 -32 36 -64 20z"/>
<path d="M6637 1848 c-9 -7 -21 -37 -27 -67 -6 -30 -11 -55 -13 -57 -1 -1 -31
-16 -67 -34 -120 -60 -160 -103 -160 -174 0 -25 9 -45 30 -69 37 -42 121 -81
159 -72 22 5 31 0 50 -25 17 -24 29 -30 49 -28 26 3 27 5 24 58 -2 30 -7 73
-12 95 -11 48 6 230 26 287 8 22 14 51 14 63 0 34 -41 46 -73 23z m-62 -325
c-6 -57 -9 -63 -30 -63 -30 0 -75 53 -75 89 0 34 28 61 72 70 40 8 43 -2 33
-96z"/>
<path d="M3895 1774 c-132 -88 -187 -196 -155 -309 40 -143 270 -181 335 -55
13 25 13 29 -1 41 -14 11 -24 9 -69 -16 -50 -26 -57 -28 -94 -17 -63 19 -105
93 -86 152 11 35 65 90 114 115 58 29 84 57 79 87 -5 36 -71 37 -123 2z"/>
<path d="M5834 1774 c-59 -39 -113 -95 -135 -137 -42 -81 -34 -182 20 -241 37
-41 80 -56 160 -56 60 0 74 4 100 25 16 14 33 35 36 46 6 18 9 17 29 -13 28
-42 67 -61 138 -66 49 -4 57 -7 62 -28 9 -33 41 -31 55 4 6 15 15 61 20 102 5
41 15 112 22 156 11 74 10 85 -7 120 -10 21 -30 44 -44 51 -38 19 -129 15
-177 -7 -46 -20 -53 -40 -28 -74 14 -19 17 -19 68 -3 67 21 113 22 121 2 11
-30 -5 -45 -48 -45 -22 0 -57 -5 -77 -10 -45 -13 -108 -73 -116 -111 -4 -21
-11 -29 -27 -29 -12 0 -38 -11 -58 -25 -20 -14 -46 -25 -58 -25 -39 0 -89 29
-110 62 -47 78 -11 153 106 217 52 28 81 67 71 94 -10 27 -77 22 -123 -9z
m426 -269 c0 -20 -7 -52 -15 -72 -15 -35 -16 -36 -60 -29 -61 8 -85 22 -85 49
0 39 23 58 86 72 32 7 62 13 67 14 4 1 7 -15 7 -34z"/>
<path d="M5030 1782 c-48 -16 -54 -37 -65 -252 -3 -58 -8 -120 -12 -138 -3
-18 -2 -67 2 -109 6 -61 12 -81 31 -99 24 -25 49 -30 74 -14 12 8 12 14 -5 47
-12 26 -20 68 -23 129 -5 103 -14 92 88 114 30 7 68 19 83 27 54 27 82 105 57
154 -12 22 -68 52 -127 68 -25 7 -44 19 -48 30 -8 26 -37 49 -55 43z m135
-155 c13 -10 16 -21 11 -41 -11 -43 -41 -66 -86 -66 -38 0 -40 2 -40 30 0 17
7 44 15 60 12 24 22 30 48 30 18 0 41 -6 52 -13z"/>
<path d="M1517 1759 c-32 -18 -37 -43 -21 -95 9 -28 18 -107 21 -183 5 -112 9
-137 24 -152 25 -25 51 -24 76 4 30 32 35 58 18 91 -11 21 -13 43 -9 80 6 46
14 58 82 129 66 67 74 79 61 91 -30 30 -70 24 -118 -19 -44 -40 -51 -42 -51
-17 0 42 -53 87 -83 71z"/>
<path d="M4180 1729 c-48 -66 -63 -100 -64 -144 -1 -82 76 -174 134 -160 51
13 94 72 110 148 6 32 8 15 9 -78 1 -66 5 -125 9 -131 7 -12 31 -17 64 -15 12
1 35 35 69 102 27 56 53 98 56 95 4 -3 7 -48 7 -99 l1 -92 27 -3 c43 -5 63 13
87 75 26 71 72 155 87 160 28 9 32 -111 8 -221 -21 -94 -16 -108 33 -104 36 3
39 6 58 58 15 44 19 81 19 190 0 161 -5 187 -39 196 -37 9 -81 -13 -125 -64
-43 -48 -45 -47 -58 28 -6 36 -13 46 -34 54 -42 15 -71 -5 -113 -78 -21 -36
-42 -63 -47 -60 -5 3 -6 27 -2 54 6 44 4 49 -20 65 -36 24 -72 8 -84 -37 l-9
-33 -20 45 c-25 56 -51 79 -96 87 -33 5 -38 2 -67 -38z m88 -92 c19 -40 21
-57 12 -82 -17 -46 -100 -23 -100 28 0 27 47 87 64 81 7 -3 18 -15 24 -27z"/>
<path d="M6833 1730 c-46 -20 -54 -41 -29 -75 13 -18 16 -18 66 -2 69 23 116
22 122 0 9 -33 -3 -43 -45 -43 -65 0 -107 -16 -149 -57 -50 -49 -63 -95 -40
-142 25 -51 60 -72 130 -78 50 -5 64 -10 77 -29 35 -53 57 -18 75 116 5 41 14
106 19 143 5 38 8 74 6 80 -2 7 -6 25 -9 40 -14 63 -133 88 -223 47z m147
-225 c0 -20 -7 -51 -14 -70 -13 -29 -20 -35 -46 -35 -51 0 -100 25 -100 53 0
39 23 58 86 72 32 7 62 13 67 14 4 1 7 -15 7 -34z"/>
<path d="M2285 1726 c-16 -7 -43 -28 -60 -45 -29 -31 -30 -36 -30 -119 0 -76
3 -93 28 -137 40 -73 78 -95 160 -95 54 0 71 4 88 21 17 17 19 48 5 66 -1 1
-24 -4 -51 -13 -28 -8 -60 -12 -72 -9 -25 6 -43 47 -24 53 28 9 159 103 165
118 7 19 -18 82 -47 112 -45 49 -115 69 -162 48z m96 -86 c43 -24 6 -90 -59
-107 -45 -11 -68 49 -36 95 17 24 61 30 95 12z"/>
<path d="M3175 1733 c-34 -9 -83 -53 -94 -85 -35 -100 6 -243 84 -297 44 -30
156 -30 186 0 17 17 19 48 5 66 -1 1 -25 -5 -52 -13 -61 -17 -104 -7 -104 26
0 11 4 20 9 20 20 0 160 100 166 119 10 33 -42 119 -85 141 -41 21 -87 30
-115 23z m90 -97 c16 -12 18 -19 10 -43 -14 -37 -77 -73 -102 -57 -24 15 -28
60 -8 90 18 28 69 33 100 10z"/>
<path d="M3483 1714 c-41 -27 -73 -70 -73 -97 0 -29 45 -67 130 -109 61 -31
86 -49 88 -64 4 -27 -27 -53 -71 -61 -29 -4 -40 -1 -62 21 -31 31 -46 33 -70
6 -18 -20 -18 -21 1 -48 64 -86 208 -77 271 18 27 40 30 90 6 119 -10 11 -47
35 -83 52 -97 47 -134 88 -94 103 29 11 54 6 102 -19 57 -30 78 -31 93 -4 9
17 7 25 -13 46 -59 64 -157 80 -225 37z"/>
<path d="M5548 1683 c-9 -2 -21 -16 -27 -31 -15 -40 -24 -223 -12 -256 10 -24
15 -27 48 -24 l38 3 1 95 c1 55 8 117 17 148 l16 53 -25 9 c-26 10 -28 10 -56
3z"/>
</g>
</svg>
